ffmpeg started on 2016-12-12 at 08:01:00
Report written to "Output/theora/results/ffmpeg/sintel9000k.log"
Command line:
Tools/ffmpeg/ffmpeg -benchmark -y -i Input/y4m/sintel.y4m -c:v libtheora -b:v 9000k -an Output/theora/encoded/sintel9000k.mkv
ffmpeg version N-82227-gdb23fde Copyright (c) 2000-2016 the FFmpeg developers
  built with gcc 5.4.0 (Ubuntu 5.4.0-6ubuntu1~16.04.2) 20160609
  configuration: --prefix=/home/jaroslav/ffmpeg_build --pkg-config-flags=--static --extra-cflags=-I/home/jaroslav/ffmpeg_build/include --extra-ldflags=-L/home/jaroslav/ffmpeg_build/lib --bindir=/home/jaroslav/bin --enable-gpl --enable-libass --enable-libfdk-aac --enable-libfreetype --enable-libmp3lame --enable-libopus --enable-libtheora --enable-libvorbis --enable-libvpx --enable-libx264 --enable-libx265 --enable-nvenc --enable-libmfx --enable-libxvid --enable-libgsm --enable-libopencore-amrnb --enable-version3 --enable-nonfree
  libavutil      55. 35.100 / 55. 35.100
  libavcodec     57. 66.101 / 57. 66.101
  libavformat    57. 57.100 / 57. 57.100
  libavdevice    57.  2.100 / 57.  2.100
  libavfilter     6. 66.100 /  6. 66.100
  libswscale      4.  3.100 /  4.  3.100
  libswresample   2.  4.100 /  2.  4.100
  libpostproc    54.  2.100 / 54.  2.100
Input #0, yuv4mpegpipe, from 'Input/y4m/sintel.y4m':
  Duration: 00:00:20.83, start: 0.000000, bitrate: 2057307 kb/s
    Stream #0:0: Video: rawvideo (I420 / 0x30323449), yuv420p(progressive), 4096x1744, SAR 1:1 DAR 256:109, 24 fps, 24 tbr, 24 tbn, 24 tbc
Output #0, matroska, to 'Output/theora/encoded/sintel9000k.mkv':
  Metadata:
    encoder         : Lavf57.57.100
    Stream #0:0: Video: theora (libtheora) (theo / 0x6F656874), yuv420p, 4096x1744 [SAR 1:1 DAR 256:109], q=2-31, 9000 kb/s, 24 fps, 1k tbn, 24 tbc
    Metadata:
      encoder         : Lavc57.66.101 libtheora
Stream mapping:
  Stream #0:0 -> #0:0 (rawvideo (native) -> theora (libtheora))
Press [q] to stop, [?] for help
frame=    3 fps=0.0 q=-0.0 size=       4kB time=00:00:00.08 bitrate= 380.5kbits/s speed=0.125x    frame=    5 fps=3.8 q=-0.0 size=       4kB time=00:00:00.16 bitrate= 190.2kbits/s speed=0.129x    frame=    7 fps=3.6 q=-0.0 size=       4kB time=00:00:00.25 bitrate= 127.3kbits/s speed=0.13x    frame=    9 fps=3.5 q=-0.0 size=       4kB time=00:00:00.33 bitrate=  95.7kbits/s speed=0.132x    frame=   11 fps=3.5 q=-0.0 size=       4kB time=00:00:00.41 bitrate=  76.5kbits/s speed=0.132x    frame=   13 fps=3.4 q=-0.0 size=     601kB time=00:00:00.50 bitrate=9827.5kbits/s speed=0.132x    frame=   16 fps=3.5 q=-0.0 size=     601kB time=00:00:00.62 bitrate=7865.2kbits/s speed=0.137x    frame=   18 fps=2.0 q=-0.0 size=     601kB time=00:00:00.70 bitrate=6944.4kbits/s speed=0.0803x    frame=   19 fps=1.5 q=-0.0 size=     601kB time=00:00:00.75 bitrate=6556.0kbits/s speed=0.0592x    frame=   20 fps=1.4 q=-0.0 size=     601kB time=00:00:00.79 bitrate=6208.8kbits/s speed=0.0538x    frame=   22 fps=1.4 q=-0.0 size=     601kB time=00:00:00.87 bitrate=5620.5kbits/s speed=0.057x    frame=   24 fps=1.5 q=-0.0 size=     601kB time=00:00:00.95 bitrate=5134.1kbits/s speed=0.0599x    frame=   27 fps=1.6 q=-0.0 size=    1172kB time=00:00:01.08 bitrate=8855.9kbits/s speed=0.0647x    frame=   29 fps=1.7 q=-0.0 size=    1172kB time=00:00:01.16 bitrate=8219.0kbits/s speed=0.0672x    frame=   31 fps=1.7 q=-0.0 size=    1172kB time=00:00:01.25 bitrate=7673.7kbits/s speed=0.0695x    frame=   33 fps=1.8 q=-0.0 size=    1172kB time=00:00:01.33 bitrate=7196.2kbits/s speed=0.0716x    frame=   34 fps=1.8 q=-0.0 size=    1172kB time=00:00:01.37 bitrate=6976.6kbits/s speed=0.0714x    frame=   36 fps=1.8 q=-0.0 size=    1172kB time=00:00:01.45 bitrate=6579.7kbits/s speed=0.0733x    frame=   39 fps=1.9 q=-0.0 size=    1660kB time=00:00:01.58 bitrate=8586.1kbits/s speed=0.0766x    frame=   41 fps=1.9 q=-0.0 size=    1660kB time=00:00:01.66 bitrate=8153.7kbits/s speed=0.0783x    frame=   43 fps=2.0 q=-0.0 size=    1660kB time=00:00:01.75 bitrate=7767.2kbits/s speed=0.0799x    frame=   45 fps=2.0 q=-0.0 size=    1660kB time=00:00:01.83 bitrate=7415.7kbits/s speed=0.0813x    frame=   47 fps=2.0 q=-0.0 size=    1660kB time=00:00:01.91 bitrate=7090.9kbits/s speed=0.0828x    frame=   49 fps=2.1 q=-0.0 size=    2179kB time=00:00:02.00 bitrate=8920.6kbits/s speed=0.0841x    frame=   52 fps=2.1 q=-0.0 size=    2179kB time=00:00:02.12 bitrate=8396.1kbits/s speed=0.0865x    frame=   54 fps=2.1 q=-0.0 size=    2179kB time=00:00:02.20 bitrate=8080.6kbits/s speed=0.0876x    frame=   56 fps=2.2 q=-0.0 size=    2179kB time=00:00:02.29 bitrate=7784.6kbits/s speed=0.0887x    frame=   58 fps=2.2 q=-0.0 size=    2666kB time=00:00:02.37 bitrate=9191.9kbits/s speed=0.0897x    frame=   60 fps=2.2 q=-0.0 size=    2666kB time=00:00:02.45 bitrate=8881.6kbits/s speed=0.0904x    frame=   62 fps=2.2 q=-0.0 size=    2666kB time=00:00:02.54 bitrate=8588.3kbits/s speed=0.0913x    frame=   64 fps=2.2 q=-0.0 size=    2666kB time=00:00:02.62 bitrate=8316.8kbits/s speed=0.0922x    frame=   66 fps=2.3 q=-0.0 size=    3054kB time=00:00:02.70 bitrate=9234.9kbits/s speed=0.093x    frame=   68 fps=2.3 q=-0.0 size=    3127kB time=00:00:02.79 bitrate=9172.5kbits/s speed=0.0933x    frame=   70 fps=2.3 q=-0.0 size=    3197kB time=00:00:02.87 bitrate=9106.2kbits/s speed=0.094x    frame=   72 fps=2.3 q=-0.0 size=    3274kB time=00:00:02.95 bitrate=9063.6kbits/s speed=0.0943x    frame=   74 fps=2.3 q=-0.0 size=    3312kB time=00:00:03.04 bitrate=8915.9kbits/s speed=0.0947x    frame=   76 fps=2.3 q=-0.0 size=    3414kB time=00:00:03.12 bitrate=8947.8kbits/s speed=0.0953x    frame=   78 fps=2.3 q=-0.0 size=    3480kB time=00:00:03.20 bitrate=8883.9kbits/s speed=0.0956x    frame=   80 fps=2.3 q=-0.0 size=    3552kB time=00:00:03.29 bitrate=8835.2kbits/s speed=0.096x    frame=   82 fps=2.3 q=-0.0 size=    3625kB time=00:00:03.37 bitrate=8795.6kbits/s speed=0.0963x    frame=   84 fps=2.3 q=-0.0 size=    3708kB time=00:00:03.45 bitrate=8780.6kbits/s speed=0.0965x    frame=   86 fps=2.3 q=-0.0 size=    3789kB time=00:00:03.54 bitrate=8760.9kbits/s speed=0.0968x    frame=   88 fps=2.4 q=-0.0 size=    3867kB time=00:00:03.62 bitrate=8736.2kbits/s speed=0.097x    frame=   90 fps=2.4 q=-0.0 size=    3955kB time=00:00:03.70 bitrate=8734.9kbits/s speed=0.0972x    frame=   92 fps=2.4 q=-0.0 size=    4047kB time=00:00:03.79 bitrate=8741.2kbits/s speed=0.0975x    frame=   94 fps=2.4 q=-0.0 size=    4144kB time=00:00:03.87 bitrate=8757.9kbits/s speed=0.0977x    frame=   96 fps=2.4 q=-0.0 size=    4233kB time=00:00:03.95 bitrate=8759.6kbits/s speed=0.0981x    frame=   98 fps=2.4 q=-0.0 size=    4327kB time=00:00:04.04 bitrate=8767.4kbits/s speed=0.0984x    frame=  100 fps=2.4 q=-0.0 size=    4327kB time=00:00:04.12 bitrate=8591.1kbits/s speed=0.0987x    frame=  102 fps=2.4 q=-0.0 size=    4327kB time=00:00:04.20 bitrate=8421.7kbits/s speed=0.0992x    frame=  104 fps=2.4 q=-0.0 size=    4327kB time=00:00:04.29 bitrate=8256.9kbits/s speed=0.0997x    frame=  106 fps=2.4 q=-0.0 size=    4713kB time=00:00:04.37 bitrate=8822.1kbits/s speed= 0.1x    frame=  108 fps=2.4 q=-0.0 size=    4713kB time=00:00:04.45 bitrate=8657.8kbits/s speed= 0.1x    frame=  110 fps=2.4 q=-0.0 size=    4713kB time=00:00:04.54 bitrate=8497.8kbits/s speed=0.101x    frame=  112 fps=2.5 q=-0.0 size=    4998kB time=00:00:04.62 bitrate=8850.0kbits/s speed=0.101x    frame=  114 fps=2.5 q=-0.0 size=    4998kB time=00:00:04.70 bitrate=8694.0kbits/s speed=0.102x    frame=  116 fps=2.5 q=-0.0 size=    5181kB time=00:00:04.79 bitrate=8855.7kbits/s speed=0.102x    frame=  118 fps=2.5 q=-0.0 size=    5181kB time=00:00:04.87 bitrate=8704.9kbits/s speed=0.102x    frame=  120 fps=2.5 q=-0.0 size=    5181kB time=00:00:04.95 bitrate=8559.2kbits/s speed=0.102x    frame=  122 fps=2.5 q=-0.0 size=    5181kB time=00:00:05.04 bitrate=8416.7kbits/s speed=0.103x    frame=  124 fps=2.5 q=-0.0 size=    5181kB time=00:00:05.12 bitrate=8280.4kbits/s speed=0.103x    frame=  126 fps=2.5 q=-0.0 size=    5761kB time=00:00:05.20 bitrate=9059.6kbits/s speed=0.102x    frame=  128 fps=2.5 q=-0.0 size=    5898kB time=00:00:05.29 bitrate=9129.1kbits/s speed=0.103x    frame=  130 fps=2.5 q=-0.0 size=    6038kB time=00:00:05.37 bitrate=9200.5kbits/s speed=0.103x    frame=  132 fps=2.5 q=-0.0 size=    6192kB time=00:00:05.45 bitrate=9291.7kbits/s speed=0.103x    frame=  134 fps=2.5 q=-0.0 size=    6358kB time=00:00:05.54 bitrate=9396.2kbits/s speed=0.103x    frame=  136 fps=2.5 q=-0.0 size=    6515kB time=00:00:05.62 bitrate=9486.7kbits/s speed=0.103x    frame=  138 fps=2.5 q=-0.0 size=    6671kB time=00:00:05.70 bitrate=9572.8kbits/s speed=0.103x    frame=  140 fps=2.5 q=-0.0 size=    6746kB time=00:00:05.79 bitrate=9539.6kbits/s speed=0.103x    frame=  142 fps=2.5 q=-0.0 size=    6883kB time=00:00:05.87 bitrate=9595.5kbits/s speed=0.103x    frame=  144 fps=2.5 q=-0.0 size=    6883kB time=00:00:05.95 bitrate=9461.9kbits/s speed=0.103x    frame=  146 fps=2.5 q=-0.0 size=    6883kB time=00:00:06.04 bitrate=9330.3kbits/s speed=0.103x    frame=  148 fps=2.5 q=-0.0 size=    6883kB time=00:00:06.12 bitrate=9203.9kbits/s speed=0.104x    frame=  150 fps=2.5 q=-0.0 size=    6883kB time=00:00:06.20 bitrate=9080.9kbits/s speed=0.104x    frame=  152 fps=2.5 q=-0.0 size=    6883kB time=00:00:06.29 bitrate=8959.7kbits/s speed=0.104x    frame=  155 fps=2.5 q=-0.0 size=    7416kB time=00:00:06.41 bitrate=9466.1kbits/s speed=0.105x    frame=  157 fps=2.5 q=-0.0 size=    7565kB time=00:00:06.50 bitrate=9533.0kbits/s speed=0.106x    frame=  159 fps=2.6 q=-0.0 size=    7565kB time=00:00:06.58 bitrate=9412.9kbits/s speed=0.106x    frame=  161 fps=2.6 q=-0.0 size=    7565kB time=00:00:06.66 bitrate=9294.3kbits/s speed=0.106x    frame=  163 fps=2.6 q=-0.0 size=    7776kB time=00:00:06.75 bitrate=9435.6kbits/s speed=0.106x    frame=  165 fps=2.6 q=-0.0 size=    7873kB time=00:00:06.83 bitrate=9437.0kbits/s speed=0.106x    frame=  167 fps=2.6 q=-0.0 size=    7970kB time=00:00:06.91 bitrate=9438.0kbits/s speed=0.106x    frame=  169 fps=2.6 q=-0.0 size=    8067kB time=00:00:07.00 bitrate=9439.0kbits/s speed=0.106x    frame=  171 fps=2.6 q=-0.0 size=    8165kB time=00:00:07.08 bitrate=9442.1kbits/s speed=0.106x    frame=  173 fps=2.6 q=-0.0 size=    8260kB time=00:00:07.16 bitrate=9439.5kbits/s speed=0.106x    frame=  175 fps=2.6 q=-0.0 size=    8357kB time=00:00:07.25 bitrate=9442.1kbits/s speed=0.106x    frame=  177 fps=2.6 q=-0.0 size=    8452kB time=00:00:07.33 bitrate=9440.9kbits/s speed=0.106x    frame=  179 fps=2.6 q=-0.0 size=    8541kB time=00:00:07.41 bitrate=9432.3kbits/s speed=0.106x    frame=  181 fps=2.6 q=-0.0 size=    8630kB time=00:00:07.50 bitrate=9424.8kbits/s speed=0.106x    frame=  183 fps=2.6 q=-0.0 size=    8723kB time=00:00:07.58 bitrate=9421.9kbits/s speed=0.106x    frame=  185 fps=2.6 q=-0.0 size=    8769kB time=00:00:07.66 bitrate=9368.5kbits/s speed=0.106x    frame=  187 fps=2.6 q=-0.0 size=    8769kB time=00:00:07.75 bitrate=9268.2kbits/s speed=0.106x    frame=  189 fps=2.6 q=-0.0 size=    8769kB time=00:00:07.83 bitrate=9170.0kbits/s speed=0.107x    frame=  191 fps=2.6 q=-0.0 size=    8769kB time=00:00:07.91 bitrate=9072.7kbits/s speed=0.107x    frame=  193 fps=2.6 q=-0.0 size=    9169kB time=00:00:08.00 bitrate=9387.7kbits/s speed=0.107x    frame=  195 fps=2.6 q=-0.0 size=    9278kB time=00:00:08.08 bitrate=9401.7kbits/s speed=0.107x    frame=  197 fps=2.6 q=-0.0 size=    9397kB time=00:00:08.16 bitrate=9424.5kbits/s speed=0.107x    frame=  199 fps=2.6 q=-0.0 size=    9511kB time=00:00:08.25 bitrate=9443.5kbits/s speed=0.107x    frame=  201 fps=2.6 q=-0.0 size=    9629kB time=00:00:08.33 bitrate=9464.7kbits/s speed=0.107x    frame=  203 fps=2.6 q=-0.0 size=    9757kB time=00:00:08.41 bitrate=9495.1kbits/s speed=0.107x    frame=  205 fps=2.6 q=-0.0 size=    9886kB time=00:00:08.50 bitrate=9526.2kbits/s speed=0.107x    frame=  207 fps=2.6 q=-0.0 size=   10007kB time=00:00:08.58 bitrate=9550.4kbits/s speed=0.107x    frame=  209 fps=2.6 q=-0.0 size=   10136kB time=00:00:08.66 bitrate=9579.6kbits/s speed=0.107x    frame=  211 fps=2.6 q=-0.0 size=   10205kB time=00:00:08.75 bitrate=9552.7kbits/s speed=0.107x    frame=  213 fps=2.6 q=-0.0 size=   10205kB time=00:00:08.83 bitrate=9462.9kbits/s speed=0.107x    frame=  215 fps=2.6 q=-0.0 size=   10205kB time=00:00:08.91 bitrate=9373.8kbits/s speed=0.107x    frame=  217 fps=2.6 q=-0.0 size=   10205kB time=00:00:09.00 bitrate=9287.4kbits/s speed=0.107x    frame=  219 fps=2.6 q=-0.0 size=   10205kB time=00:00:09.08 bitrate=9202.5kbits/s speed=0.107x    frame=  221 fps=2.6 q=-0.0 size=   10205kB time=00:00:09.16 bitrate=9118.2kbits/s speed=0.108x    frame=  224 fps=2.6 q=-0.0 size=   10770kB time=00:00:09.29 bitrate=9494.2kbits/s speed=0.108x    frame=  226 fps=2.6 q=-0.0 size=   10770kB time=00:00:09.37 bitrate=9410.1kbits/s speed=0.108x    frame=  228 fps=2.6 q=-0.0 size=   10770kB time=00:00:09.45 bitrate=9327.5kbits/s speed=0.108x    frame=  230 fps=2.6 q=-0.0 size=   10770kB time=00:00:09.54 bitrate=9245.4kbits/s speed=0.109x    frame=  232 fps=2.6 q=-0.0 size=   10770kB time=00:00:09.62 bitrate=9165.7kbits/s speed=0.109x    frame=  234 fps=2.6 q=-0.0 size=   11159kB time=00:00:09.70 bitrate=9415.1kbits/s speed=0.109x    frame=  237 fps=2.6 q=-0.0 size=   11159kB time=00:00:09.83 bitrate=9295.4kbits/s speed=0.109x    frame=  239 fps=2.6 q=-0.0 size=   11159kB time=00:00:09.91 bitrate=9216.7kbits/s speed=0.11x    frame=  241 fps=2.6 q=-0.0 size=   11159kB time=00:00:10.00 bitrate=9140.2kbits/s speed=0.11x    frame=  243 fps=2.6 q=-0.0 size=   11684kB time=00:00:10.08 bitrate=9492.0kbits/s speed=0.11x    frame=  245 fps=2.6 q=-0.0 size=   11684kB time=00:00:10.16 bitrate=9413.6kbits/s speed=0.11x    frame=  247 fps=2.7 q=-0.0 size=   11684kB time=00:00:10.25 bitrate=9337.3kbits/s speed=0.11x    frame=  248 fps=2.6 q=-0.0 size=   11684kB time=00:00:10.29 bitrate=9299.2kbits/s speed=0.11x    frame=  250 fps=2.6 q=-0.0 size=   11684kB time=00:00:10.37 bitrate=9224.9kbits/s speed=0.11x    frame=  252 fps=2.7 q=-0.0 size=   11684kB time=00:00:10.45 bitrate=9151.7kbits/s speed=0.11x    frame=  254 fps=2.7 q=-0.0 size=   11684kB time=00:00:10.54 bitrate=9078.7kbits/s speed=0.11x    frame=  257 fps=2.7 q=-0.0 size=   12284kB time=00:00:10.66 bitrate=9432.6kbits/s speed=0.111x    frame=  259 fps=2.7 q=-0.0 size=   12284kB time=00:00:10.75 bitrate=9359.8kbits/s speed=0.111x    frame=  261 fps=2.7 q=-0.0 size=   12284kB time=00:00:10.83 bitrate=9288.0kbits/s speed=0.111x    frame=  263 fps=2.7 q=-0.0 size=   12284kB time=00:00:10.91 bitrate=9216.6kbits/s speed=0.111x    frame=  265 fps=2.7 q=-0.0 size=   12284kB time=00:00:11.00 bitrate=9147.0kbits/s speed=0.111x    frame=  267 fps=2.7 q=-0.0 size=   12670kB time=00:00:11.08 bitrate=9364.1kbits/s speed=0.111x    frame=  269 fps=2.7 q=-0.0 size=   12670kB time=00:00:11.16 bitrate=9293.7kbits/s speed=0.111x    frame=  271 fps=2.7 q=-0.0 size=   12670kB time=00:00:11.25 bitrate=9225.1kbits/s speed=0.112x    frame=  273 fps=2.7 q=-0.0 size=   12670kB time=00:00:11.33 bitrate=9157.6kbits/s speed=0.112x    frame=  275 fps=2.7 q=-0.0 size=   12670kB time=00:00:11.41 bitrate=9090.2kbits/s speed=0.112x    frame=  277 fps=2.7 q=-0.0 size=   12670kB time=00:00:11.50 bitrate=9024.6kbits/s speed=0.112x    frame=  279 fps=2.7 q=-0.0 size=   13031kB time=00:00:11.58 bitrate=9215.0kbits/s speed=0.112x    frame=  281 fps=2.7 q=-0.0 size=   13031kB time=00:00:11.66 bitrate=9148.7kbits/s speed=0.112x    frame=  283 fps=2.7 q=-0.0 size=   13031kB time=00:00:11.75 bitrate=9084.0kbits/s speed=0.113x    frame=  285 fps=2.7 q=-0.0 size=   13031kB time=00:00:11.83 bitrate=9020.3kbits/s speed=0.113x    frame=  287 fps=2.7 q=-0.0 size=   13031kB time=00:00:11.91 bitrate=8956.7kbits/s speed=0.113x    frame=  289 fps=2.7 q=-0.0 size=   13031kB time=00:00:12.00 bitrate=8894.8kbits/s speed=0.113x    frame=  292 fps=2.7 q=-0.0 size=   13554kB time=00:00:12.12 bitrate=9156.7kbits/s speed=0.113x    frame=  294 fps=2.7 q=-0.0 size=   13554kB time=00:00:12.20 bitrate=9094.5kbits/s speed=0.113x    frame=  296 fps=2.7 q=-0.0 size=   13554kB time=00:00:12.29 bitrate=9032.3kbits/s speed=0.113x    frame=  298 fps=2.7 q=-0.0 size=   13554kB time=00:00:12.37 bitrate=8971.7kbits/s speed=0.114x    frame=  300 fps=2.7 q=-0.0 size=   13554kB time=00:00:12.45 bitrate=8912.0kbits/s speed=0.114x    frame=  302 fps=2.7 q=-0.0 size=   13999kB time=00:00:12.54 bitrate=9142.9kbits/s speed=0.114x    frame=  305 fps=2.8 q=-0.0 size=   13999kB time=00:00:12.66 bitrate=9052.7kbits/s speed=0.114x    frame=  307 fps=2.8 q=-0.0 size=   13999kB time=00:00:12.75 bitrate=8993.7kbits/s speed=0.114x    frame=  309 fps=2.8 q=-0.0 size=   13999kB time=00:00:12.83 bitrate=8935.6kbits/s speed=0.114x    frame=  311 fps=2.8 q=-0.0 size=   13999kB time=00:00:12.91 bitrate=8877.5kbits/s speed=0.114x    frame=  313 fps=2.8 q=-0.0 size=   13999kB time=00:00:13.00 bitrate=8820.8kbits/s speed=0.114x    frame=  315 fps=2.8 q=-0.0 size=   14501kB time=00:00:13.08 bitrate=9079.1kbits/s speed=0.114x    frame=  317 fps=2.8 q=-0.0 size=   14501kB time=00:00:13.16 bitrate=9021.2kbits/s speed=0.115x    frame=  319 fps=2.8 q=-0.0 size=   14501kB time=00:00:13.25 bitrate=8964.6kbits/s speed=0.115x    frame=  321 fps=2.8 q=-0.0 size=   14501kB time=00:00:13.33 bitrate=8908.8kbits/s speed=0.115x    frame=  323 fps=2.8 q=-0.0 size=   14501kB time=00:00:13.41 bitrate=8853.1kbits/s speed=0.115x    frame=  325 fps=2.8 q=-0.0 size=   14501kB time=00:00:13.50 bitrate=8798.6kbits/s speed=0.115x    frame=  327 fps=2.8 q=-0.0 size=   15064kB time=00:00:13.58 bitrate=9084.3kbits/s speed=0.115x    frame=  329 fps=2.8 q=-0.0 size=   15064kB time=00:00:13.66 bitrate=9028.5kbits/s speed=0.115x    frame=  331 fps=2.8 q=-0.0 size=   15064kB time=00:00:13.75 bitrate=8974.0kbits/s speed=0.115x    frame=  333 fps=2.8 q=-0.0 size=   15064kB time=00:00:13.83 bitrate=8920.2kbits/s speed=0.115x    frame=  335 fps=2.8 q=-0.0 size=   15064kB time=00:00:13.91 bitrate=8866.3kbits/s speed=0.115x    frame=  337 fps=2.8 q=-0.0 size=   15064kB time=00:00:14.00 bitrate=8813.8kbits/s speed=0.115x    frame=  339 fps=2.8 q=-0.0 size=   15611kB time=00:00:14.08 bitrate=9080.2kbits/s speed=0.115x    frame=  341 fps=2.8 q=-0.0 size=   15611kB time=00:00:14.16 bitrate=9026.3kbits/s speed=0.115x    frame=  343 fps=2.8 q=-0.0 size=   15611kB time=00:00:14.25 bitrate=8973.8kbits/s speed=0.115x    frame=  345 fps=2.8 q=-0.0 size=   15611kB time=00:00:14.33 bitrate=8921.8kbits/s speed=0.115x    frame=  347 fps=2.8 q=-0.0 size=   15611kB time=00:00:14.41 bitrate=8869.8kbits/s speed=0.115x    frame=  349 fps=2.8 q=-0.0 size=   15611kB time=00:00:14.50 bitrate=8819.1kbits/s speed=0.115x    frame=  351 fps=2.8 q=-0.0 size=   16138kB time=00:00:14.58 bitrate=9065.1kbits/s speed=0.116x    frame=  353 fps=2.8 q=-0.0 size=   16138kB time=00:00:14.66 bitrate=9013.2kbits/s speed=0.116x    frame=  355 fps=2.8 q=-0.0 size=   16138kB time=00:00:14.75 bitrate=8962.5kbits/s speed=0.116x    frame=  357 fps=2.8 q=-0.0 size=   16138kB time=00:00:14.83 bitrate=8912.4kbits/s speed=0.116x    frame=  359 fps=2.8 q=-0.0 size=   16138kB time=00:00:14.91 bitrate=8862.2kbits/s speed=0.116x    frame=  361 fps=2.8 q=-0.0 size=   16138kB time=00:00:15.00 bitrate=8813.2kbits/s speed=0.116x    frame=  363 fps=2.8 q=-0.0 size=   16909kB time=00:00:15.08 bitrate=9183.3kbits/s speed=0.116x    frame=  364 fps=2.8 q=-0.0 size=   16909kB time=00:00:15.12 bitrate=9157.8kbits/s speed=0.116x    frame=  366 fps=2.8 q=-0.0 size=   16909kB time=00:00:15.20 bitrate=9107.8kbits/s speed=0.116x    frame=  368 fps=2.8 q=-0.0 size=   16909kB time=00:00:15.29 bitrate=9057.8kbits/s speed=0.116x    frame=  370 fps=2.8 q=-0.0 size=   16909kB time=00:00:15.37 bitrate=9008.9kbits/s speed=0.116x    frame=  372 fps=2.8 q=-0.0 size=   16909kB time=00:00:15.45 bitrate=8960.5kbits/s speed=0.116x    frame=  374 fps=2.8 q=-0.0 size=   16909kB time=00:00:15.54 bitrate=8912.1kbits/s speed=0.116x    frame=  376 fps=2.8 q=-0.0 size=   17445kB time=00:00:15.62 bitrate=9145.7kbits/s speed=0.116x    frame=  378 fps=2.8 q=-0.0 size=   17445kB time=00:00:15.70 bitrate=9097.4kbits/s speed=0.116x    frame=  380 fps=2.8 q=-0.0 size=   17445kB time=00:00:15.79 bitrate=9049.0kbits/s speed=0.116x    frame=  382 fps=2.8 q=-0.0 size=   17445kB time=00:00:15.87 bitrate=9001.7kbits/s speed=0.116x    frame=  384 fps=2.8 q=-0.0 size=   17445kB time=00:00:15.95 bitrate=8954.9kbits/s speed=0.116x    frame=  386 fps=2.8 q=-0.0 size=   17445kB time=00:00:16.04 bitrate=8908.0kbits/s speed=0.116x    frame=  388 fps=2.8 q=-0.0 size=   17925kB time=00:00:16.12 bitrate=9105.7kbits/s speed=0.116x    frame=  390 fps=2.8 q=-0.0 size=   17925kB time=00:00:16.20 bitrate=9059.1kbits/s speed=0.116x    frame=  392 fps=2.8 q=-0.0 size=   17925kB time=00:00:16.29 bitrate=9012.4kbits/s speed=0.116x    frame=  394 fps=2.8 q=-0.0 size=   17925kB time=00:00:16.37 bitrate=8966.7kbits/s speed=0.116x    frame=  396 fps=2.8 q=-0.0 size=   17925kB time=00:00:16.45 bitrate=8921.5kbits/s speed=0.116x    frame=  398 fps=2.8 q=-0.0 size=   17925kB time=00:00:16.54 bitrate=8876.2kbits/s speed=0.116x    frame=  401 fps=2.8 q=-0.0 size=   18712kB time=00:00:16.66 bitrate=9196.5kbits/s speed=0.117x    frame=  403 fps=2.8 q=-0.0 size=   18712kB time=00:00:16.75 bitrate=9150.9kbits/s speed=0.117x    frame=  405 fps=2.8 q=-0.0 size=   18712kB time=00:00:16.83 bitrate=9105.8kbits/s speed=0.117x    frame=  407 fps=2.8 q=-0.0 size=   18712kB time=00:00:16.91 bitrate=9060.6kbits/s speed=0.117x    frame=  409 fps=2.8 q=-0.0 size=   18712kB time=00:00:17.00 bitrate=9016.4kbits/s speed=0.117x    frame=  411 fps=2.8 q=-0.0 size=   19182kB time=00:00:17.08 bitrate=9198.2kbits/s speed=0.117x    frame=  414 fps=2.8 q=-0.0 size=   19182kB time=00:00:17.20 bitrate=9131.4kbits/s speed=0.117x    frame=  416 fps=2.8 q=-0.0 size=   19182kB time=00:00:17.29 bitrate=9087.0kbits/s speed=0.117x    frame=  418 fps=2.8 q=-0.0 size=   19182kB time=00:00:17.37 bitrate=9043.6kbits/s speed=0.117x    frame=  420 fps=2.8 q=-0.0 size=   19466kB time=00:00:17.45 bitrate=9133.9kbits/s speed=0.117x    frame=  422 fps=2.8 q=-0.0 size=   19466kB time=00:00:17.54 bitrate=9090.1kbits/s speed=0.117x    frame=  424 fps=2.8 q=-0.0 size=   19466kB time=00:00:17.62 bitrate=9047.3kbits/s speed=0.117x    frame=  426 fps=2.8 q=-0.0 size=   19466kB time=00:00:17.70 bitrate=9004.9kbits/s speed=0.117x    frame=  428 fps=2.8 q=-0.0 size=   19466kB time=00:00:17.79 bitrate=8962.4kbits/s speed=0.117x    frame=  430 fps=2.8 q=-0.0 size=   19466kB time=00:00:17.87 bitrate=8920.8kbits/s speed=0.117x    frame=  433 fps=2.8 q=-0.0 size=   20172kB time=00:00:18.00 bitrate=9179.9kbits/s speed=0.118x    frame=  435 fps=2.8 q=-0.0 size=   20172kB time=00:00:18.08 bitrate=9137.8kbits/s speed=0.118x    frame=  437 fps=2.8 q=-0.0 size=   20172kB time=00:00:18.16 bitrate=9095.6kbits/s speed=0.118x    frame=  439 fps=2.8 q=-0.0 size=   20172kB time=00:00:18.25 bitrate=9054.2kbits/s speed=0.118x    frame=  441 fps=2.8 q=-0.0 size=   20172kB time=00:00:18.33 bitrate=9013.2kbits/s speed=0.118x    frame=  443 fps=2.8 q=-0.0 size=   20545kB time=00:00:18.41 bitrate=9138.0kbits/s speed=0.118x    frame=  446 fps=2.8 q=-0.0 size=   20545kB time=00:00:18.54 bitrate=9076.4kbits/s speed=0.118x    frame=  448 fps=2.8 q=-0.0 size=   20545kB time=00:00:18.62 bitrate=9035.9kbits/s speed=0.118x    frame=  450 fps=2.8 q=-0.0 size=   20545kB time=00:00:18.70 bitrate=8995.8kbits/s speed=0.118x    frame=  452 fps=2.8 q=-0.0 size=   20545kB time=00:00:18.79 bitrate=8955.6kbits/s speed=0.118x    frame=  454 fps=2.8 q=-0.0 size=   20545kB time=00:00:18.87 bitrate=8916.2kbits/s speed=0.118x    frame=  457 fps=2.8 q=-0.0 size=   21101kB time=00:00:19.00 bitrate=9097.4kbits/s speed=0.118x    frame=  459 fps=2.9 q=-0.0 size=   21101kB time=00:00:19.08 bitrate=9057.8kbits/s speed=0.119x    frame=  461 fps=2.9 q=-0.0 size=   21101kB time=00:00:19.16 bitrate=9018.1kbits/s speed=0.119x    frame=  463 fps=2.9 q=-0.0 size=   21101kB time=00:00:19.25 bitrate=8979.2kbits/s speed=0.119x    frame=  465 fps=2.9 q=-0.0 size=   21101kB time=00:00:19.33 bitrate=8940.7kbits/s speed=0.119x    frame=  467 fps=2.9 q=-0.0 size=   21622kB time=00:00:19.41 bitrate=9121.7kbits/s speed=0.119x    frame=  469 fps=2.9 q=-0.0 size=   21622kB time=00:00:19.50 bitrate=9082.9kbits/s speed=0.119x    frame=  471 fps=2.9 q=-0.0 size=   21622kB time=00:00:19.58 bitrate=9044.4kbits/s speed=0.119x    frame=  473 fps=2.9 q=-0.0 size=   21622kB time=00:00:19.66 bitrate=9005.8kbits/s speed=0.119x    frame=  475 fps=2.9 q=-0.0 size=   21622kB time=00:00:19.75 bitrate=8967.9kbits/s speed=0.119x    frame=  477 fps=2.9 q=-0.0 size=   21622kB time=00:00:19.83 bitrate=8930.4kbits/s speed=0.119x    frame=  479 fps=2.9 q=-0.0 size=   22148kB time=00:00:19.91 bitrate=9109.2kbits/s speed=0.119x    frame=  482 fps=2.9 q=-0.0 size=   22148kB time=00:00:20.04 bitrate=9052.4kbits/s speed=0.12x    frame=  484 fps=2.9 q=-0.0 size=   22148kB time=00:00:20.12 bitrate=9015.1kbits/s speed=0.12x    frame=  486 fps=2.9 q=-0.0 size=   22148kB time=00:00:20.20 bitrate=8978.0kbits/s speed=0.12x    frame=  488 fps=2.9 q=-0.0 size=   22148kB time=00:00:20.29 bitrate=8940.9kbits/s speed=0.12x    frame=  490 fps=2.9 q=-0.0 size=   22148kB time=00:00:20.37 bitrate=8904.5kbits/s speed=0.12x    frame=  492 fps=2.9 q=-0.0 size=   22643kB time=00:00:20.45 bitrate=9066.7kbits/s speed=0.12x    frame=  494 fps=2.9 q=-0.0 size=   22643kB time=00:00:20.54 bitrate=9029.6kbits/s speed=0.12x    frame=  496 fps=2.9 q=-0.0 size=   22643kB time=00:00:20.62 bitrate=8993.3kbits/s speed=0.12x    frame=  498 fps=2.9 q=-0.0 size=   22643kB time=00:00:20.70 bitrate=8957.2kbits/s speed=0.12x    frame=  500 fps=2.9 q=-0.0 size=   22643kB time=00:00:20.79 bitrate=8921.0kbits/s speed=0.12x    frame=  500 fps=2.9 q=-0.0 Lsize=   23152kB time=00:00:20.79 bitrate=9121.5kbits/s speed=0.119x    
video:23140kB audio:0kB subtitle:0kB other streams:0kB global headers:3kB muxing overhead: 0.054910%
bench: utime=152.852s
bench: maxrss=259876kB
